<mxfile host="app.diagrams.net" agent="Mozilla/5.0 (Windows NT 10.0; Win64; x64) AppleWebKit/537.36 (KHTML, like Gecko) Chrome/129.0.0.0 Safari/537.36" version="24.8.0">
  <diagram name="PÃ¡gina-1" id="BYmpor4EBP_jvTRVzjmz">
    <mxGraphModel dx="6134" dy="1897" grid="1" gridSize="10" guides="1" tooltips="1" connect="1" arrows="1" fold="1" page="1" pageScale="1" pageWidth="827" pageHeight="1169" math="0" shadow="0">
      <root>
        <mxCell id="0" />
        <mxCell id="1" parent="0" />
        <mxCell id="GoCfgRTNsYvVOT-GzP8W-1" value="Usuario" style="swimlane;fontStyle=1;align=center;verticalAlign=top;childLayout=stackLayout;horizontal=1;startSize=26;horizontalStack=0;resizeParent=1;resizeParentMax=0;resizeLast=0;collapsible=1;marginBottom=0;whiteSpace=wrap;html=1;" vertex="1" parent="1">
          <mxGeometry x="-250" y="340" width="690" height="210" as="geometry" />
        </mxCell>
        <mxCell id="GoCfgRTNsYvVOT-GzP8W-2" value="- nombre: String&lt;div&gt;- apellido: String&lt;/div&gt;&lt;div&gt;- telefono: int&lt;/div&gt;&lt;div&gt;- correo: String&lt;/div&gt;&lt;div&gt;- direccionFisica: String&lt;/div&gt;&lt;div&gt;- fechaIngreso: LocalDate&lt;/div&gt;&lt;div&gt;- pin: String&lt;/div&gt;&lt;div&gt;- identificacionUsuario: String&lt;/div&gt;" style="text;strokeColor=none;fillColor=none;align=left;verticalAlign=top;spacingLeft=4;spacingRight=4;overflow=hidden;rotatable=0;points=[[0,0.5],[1,0.5]];portConstraint=eastwest;whiteSpace=wrap;html=1;" vertex="1" parent="GoCfgRTNsYvVOT-GzP8W-1">
          <mxGeometry y="26" width="690" height="124" as="geometry" />
        </mxCell>
        <mxCell id="GoCfgRTNsYvVOT-GzP8W-3" value="" style="line;strokeWidth=1;fillColor=none;align=left;verticalAlign=middle;spacingTop=-1;spacingLeft=3;spacingRight=3;rotatable=0;labelPosition=right;points=[];portConstraint=eastwest;strokeColor=inherit;" vertex="1" parent="GoCfgRTNsYvVOT-GzP8W-1">
          <mxGeometry y="150" width="690" height="8" as="geometry" />
        </mxCell>
        <mxCell id="GoCfgRTNsYvVOT-GzP8W-4" value="&lt;font style=&quot;font-size: 12px;&quot;&gt;+ Usuario(&lt;a style=&quot;text-decoration-line: none; font-family: &amp;quot;DejaVu Sans Mono&amp;quot;, monospace; white-space: pre; background-color: rgb(255, 255, 255);&quot; class=&quot;external-link&quot; title=&quot;class or interface in java.lang&quot; href=&quot;https://docs.oracle.com/en/java/javase/21/docs/api/java.base/java/lang/String.html&quot;&gt;String&lt;/a&gt;&lt;span style=&quot;color: rgb(53, 56, 51); font-family: &amp;quot;DejaVu Sans Mono&amp;quot;, monospace; white-space: pre; background-color: rgb(255, 255, 255);&quot;&gt;&amp;nbsp;pNombre, &lt;/span&gt;&lt;a style=&quot;text-decoration-line: none; font-family: &amp;quot;DejaVu Sans Mono&amp;quot;, monospace; white-space: pre; background-color: rgb(255, 255, 255);&quot; class=&quot;external-link&quot; title=&quot;class or interface in java.lang&quot; href=&quot;https://docs.oracle.com/en/java/javase/21/docs/api/java.base/java/lang/String.html&quot;&gt;String&lt;/a&gt;&lt;span style=&quot;color: rgb(53, 56, 51); font-family: &amp;quot;DejaVu Sans Mono&amp;quot;, monospace; white-space: pre; background-color: rgb(255, 255, 255);&quot;&gt;&amp;nbsp;pApellido, &lt;/span&gt;&lt;a style=&quot;text-decoration-line: none; font-family: &amp;quot;DejaVu Sans Mono&amp;quot;, monospace; white-space: pre; background-color: rgb(255, 255, 255);&quot; class=&quot;external-link&quot; title=&quot;class or interface in java.lang&quot; href=&quot;https://docs.oracle.com/en/java/javase/21/docs/api/java.base/java/lang/String.html&quot;&gt;String&lt;/a&gt;&lt;span style=&quot;color: rgb(53, 56, 51); font-family: &amp;quot;DejaVu Sans Mono&amp;quot;, monospace; white-space: pre; background-color: rgb(255, 255, 255);&quot;&gt;&amp;nbsp;pTelefono, &lt;/span&gt;&lt;a style=&quot;text-decoration-line: none; font-family: &amp;quot;DejaVu Sans Mono&amp;quot;, monospace; white-space: pre; background-color: rgb(255, 255, 255);&quot; class=&quot;external-link&quot; title=&quot;class or interface in java.lang&quot; href=&quot;https://docs.oracle.com/en/java/javase/21/docs/api/java.base/java/lang/String.html&quot;&gt;String&lt;/a&gt;&lt;span style=&quot;color: rgb(53, 56, 51); font-family: &amp;quot;DejaVu Sans Mono&amp;quot;, monospace; white-space: pre; background-color: rgb(255, 255, 255);&quot;&gt;&amp;nbsp;pCorreo, &lt;/span&gt;&lt;a style=&quot;text-decoration-line: none; font-family: &amp;quot;DejaVu Sans Mono&amp;quot;, monospace; white-space: pre; background-color: rgb(255, 255, 255);&quot; class=&quot;external-link&quot; title=&quot;class or interface in java.lang&quot; href=&quot;https://docs.oracle.com/en/java/javase/21/docs/api/java.base/java/lang/String.html&quot;&gt;String&lt;/a&gt;&lt;span style=&quot;color: rgb(53, 56, 51); font-family: &amp;quot;DejaVu Sans Mono&amp;quot;, monospace; white-space: pre; background-color: rgb(255, 255, 255);&quot;&gt;&amp;nbsp;pDireccionFisica, &lt;/span&gt;&lt;/font&gt;&lt;div&gt;&lt;font style=&quot;font-size: 12px;&quot;&gt;&lt;a style=&quot;text-decoration-line: none; font-family: &amp;quot;DejaVu Sans Mono&amp;quot;, monospace; white-space: pre; background-color: rgb(255, 255, 255);&quot; class=&quot;external-link&quot; title=&quot;class or interface in java.time&quot; href=&quot;https://docs.oracle.com/en/java/javase/21/docs/api/java.base/java/time/LocalDate.html&quot;&gt;&lt;span style=&quot;white-space: pre;&quot;&gt;&#x9;&lt;/span&gt;LocalDate&lt;/a&gt;&lt;span style=&quot;color: rgb(53, 56, 51); font-family: &amp;quot;DejaVu Sans Mono&amp;quot;, monospace; white-space: pre; background-color: rgb(255, 255, 255);&quot;&gt;&amp;nbsp;pFechaIngreso, &lt;/span&gt;&lt;a style=&quot;text-decoration-line: none; font-family: &amp;quot;DejaVu Sans Mono&amp;quot;, monospace; white-space: pre; background-color: rgb(255, 255, 255);&quot; class=&quot;external-link&quot; title=&quot;class or interface in java.lang&quot; href=&quot;https://docs.oracle.com/en/java/javase/21/docs/api/java.base/java/lang/String.html&quot;&gt;String&lt;/a&gt;&lt;span style=&quot;color: rgb(53, 56, 51); font-family: &amp;quot;DejaVu Sans Mono&amp;quot;, monospace; white-space: pre; background-color: rgb(255, 255, 255);&quot;&gt;&amp;nbsp;pPin, &lt;/span&gt;&lt;a style=&quot;text-decoration-line: none; font-family: &amp;quot;DejaVu Sans Mono&amp;quot;, monospace; white-space: pre; background-color: rgb(255, 255, 255);&quot; class=&quot;external-link&quot; title=&quot;class or interface in java.lang&quot; href=&quot;https://docs.oracle.com/en/java/javase/21/docs/api/java.base/java/lang/String.html&quot;&gt;String&lt;/a&gt;&lt;span style=&quot;color: rgb(53, 56, 51); font-family: &amp;quot;DejaVu Sans Mono&amp;quot;, monospace; white-space: pre; background-color: rgb(255, 255, 255);&quot;&gt;&amp;nbsp;pIdentificacionUsuario&lt;/span&gt;)&lt;/font&gt;&lt;/div&gt;" style="text;strokeColor=none;fillColor=none;align=left;verticalAlign=top;spacingLeft=4;spacingRight=4;overflow=hidden;rotatable=0;points=[[0,0.5],[1,0.5]];portConstraint=eastwest;whiteSpace=wrap;html=1;" vertex="1" parent="GoCfgRTNsYvVOT-GzP8W-1">
          <mxGeometry y="158" width="690" height="52" as="geometry" />
        </mxCell>
        <mxCell id="GoCfgRTNsYvVOT-GzP8W-5" value="Cliente" style="swimlane;fontStyle=1;align=center;verticalAlign=top;childLayout=stackLayout;horizontal=1;startSize=26;horizontalStack=0;resizeParent=1;resizeParentMax=0;resizeLast=0;collapsible=1;marginBottom=0;whiteSpace=wrap;html=1;" vertex="1" parent="1">
          <mxGeometry x="830" y="670" width="850" height="190" as="geometry" />
        </mxCell>
        <mxCell id="GoCfgRTNsYvVOT-GzP8W-6" value="- minsNoUtilizados: int" style="text;strokeColor=none;fillColor=none;align=left;verticalAlign=top;spacingLeft=4;spacingRight=4;overflow=hidden;rotatable=0;points=[[0,0.5],[1,0.5]];portConstraint=eastwest;whiteSpace=wrap;html=1;" vertex="1" parent="GoCfgRTNsYvVOT-GzP8W-5">
          <mxGeometry y="26" width="850" height="24" as="geometry" />
        </mxCell>
        <mxCell id="GoCfgRTNsYvVOT-GzP8W-7" value="" style="line;strokeWidth=1;fillColor=none;align=left;verticalAlign=middle;spacingTop=-1;spacingLeft=3;spacingRight=3;rotatable=0;labelPosition=right;points=[];portConstraint=eastwest;strokeColor=inherit;" vertex="1" parent="GoCfgRTNsYvVOT-GzP8W-5">
          <mxGeometry y="50" width="850" height="8" as="geometry" />
        </mxCell>
        <mxCell id="GoCfgRTNsYvVOT-GzP8W-8" value="&lt;font style=&quot;&quot;&gt;+ Cliente(&lt;a href=&quot;https://docs.oracle.com/en/java/javase/21/docs/api/java.base/java/lang/String.html&quot; title=&quot;class or interface in java.lang&quot; class=&quot;external-link&quot; style=&quot;font-size: 12px; text-decoration-line: none; font-family: &amp;quot;DejaVu Sans Mono&amp;quot;, monospace; white-space: pre; background-color: rgb(255, 255, 255);&quot;&gt;String&lt;/a&gt;&lt;span style=&quot;font-size: 12px; color: rgb(53, 56, 51); font-family: &amp;quot;DejaVu Sans Mono&amp;quot;, monospace; white-space: pre; background-color: rgb(255, 255, 255);&quot;&gt;&amp;nbsp;pNombre, &lt;/span&gt;&lt;a href=&quot;https://docs.oracle.com/en/java/javase/21/docs/api/java.base/java/lang/String.html&quot; title=&quot;class or interface in java.lang&quot; class=&quot;external-link&quot; style=&quot;font-size: 12px; text-decoration-line: none; font-family: &amp;quot;DejaVu Sans Mono&amp;quot;, monospace; white-space: pre; background-color: rgb(255, 255, 255);&quot;&gt;String&lt;/a&gt;&lt;span style=&quot;font-size: 12px; color: rgb(53, 56, 51); font-family: &amp;quot;DejaVu Sans Mono&amp;quot;, monospace; white-space: pre; background-color: rgb(255, 255, 255);&quot;&gt;&amp;nbsp;pApellido, &lt;/span&gt;&lt;a href=&quot;https://docs.oracle.com/en/java/javase/21/docs/api/java.base/java/lang/String.html&quot; title=&quot;class or interface in java.lang&quot; class=&quot;external-link&quot; style=&quot;font-size: 12px; text-decoration-line: none; font-family: &amp;quot;DejaVu Sans Mono&amp;quot;, monospace; white-space: pre; background-color: rgb(255, 255, 255);&quot;&gt;String&lt;/a&gt;&lt;span style=&quot;font-size: 12px; color: rgb(53, 56, 51); font-family: &amp;quot;DejaVu Sans Mono&amp;quot;, monospace; white-space: pre; background-color: rgb(255, 255, 255);&quot;&gt;&amp;nbsp;pTelefono, &lt;/span&gt;&lt;a href=&quot;https://docs.oracle.com/en/java/javase/21/docs/api/java.base/java/lang/String.html&quot; title=&quot;class or interface in java.lang&quot; class=&quot;external-link&quot; style=&quot;font-size: 12px; text-decoration-line: none; font-family: &amp;quot;DejaVu Sans Mono&amp;quot;, monospace; white-space: pre; background-color: rgb(255, 255, 255);&quot;&gt;String&lt;/a&gt;&lt;span style=&quot;font-size: 12px; color: rgb(53, 56, 51); font-family: &amp;quot;DejaVu Sans Mono&amp;quot;, monospace; white-space: pre; background-color: rgb(255, 255, 255);&quot;&gt;&amp;nbsp;pCorreo, &lt;/span&gt;&lt;a href=&quot;https://docs.oracle.com/en/java/javase/21/docs/api/java.base/java/lang/String.html&quot; title=&quot;class or interface in java.lang&quot; class=&quot;external-link&quot; style=&quot;font-size: 12px; text-decoration-line: none; font-family: &amp;quot;DejaVu Sans Mono&amp;quot;, monospace; white-space: pre; background-color: rgb(255, 255, 255);&quot;&gt;String&lt;/a&gt;&lt;span style=&quot;font-size: 12px; color: rgb(53, 56, 51); font-family: &amp;quot;DejaVu Sans Mono&amp;quot;, monospace; white-space: pre; background-color: rgb(255, 255, 255);&quot;&gt;&amp;nbsp;pDireccionFisica, &lt;/span&gt;&lt;a href=&quot;https://docs.oracle.com/en/java/javase/21/docs/api/java.base/java/time/LocalDate.html&quot; title=&quot;class or interface in java.time&quot; class=&quot;external-link&quot; style=&quot;font-size: 12px; text-decoration-line: none; font-family: &amp;quot;DejaVu Sans Mono&amp;quot;, monospace; white-space: pre; background-color: rgb(255, 255, 255);&quot;&gt;LocalDate&lt;/a&gt;&lt;span style=&quot;font-size: 12px; color: rgb(53, 56, 51); font-family: &amp;quot;DejaVu Sans Mono&amp;quot;, monospace; white-space: pre; background-color: rgb(255, 255, 255);&quot;&gt;&amp;nbsp;pFechaIngreso, &lt;/span&gt;&lt;/font&gt;&lt;div&gt;&lt;font style=&quot;&quot;&gt;&lt;a href=&quot;https://docs.oracle.com/en/java/javase/21/docs/api/java.base/java/lang/String.html&quot; title=&quot;class or interface in java.lang&quot; class=&quot;external-link&quot; style=&quot;font-size: 12px; text-decoration-line: none; font-family: &amp;quot;DejaVu Sans Mono&amp;quot;, monospace; white-space: pre; background-color: rgb(255, 255, 255);&quot;&gt;&lt;span style=&quot;white-space: pre;&quot;&gt;&#x9;&lt;/span&gt;String&lt;/a&gt;&lt;span style=&quot;font-size: 12px; color: rgb(53, 56, 51); font-family: &amp;quot;DejaVu Sans Mono&amp;quot;, monospace; white-space: pre; background-color: rgb(255, 255, 255);&quot;&gt;&amp;nbsp;pPin, &lt;/span&gt;&lt;a href=&quot;https://docs.oracle.com/en/java/javase/21/docs/api/java.base/java/lang/String.html&quot; title=&quot;class or interface in java.lang&quot; class=&quot;external-link&quot; style=&quot;font-size: 12px; text-decoration-line: none; font-family: &amp;quot;DejaVu Sans Mono&amp;quot;, monospace; white-space: pre; background-color: rgb(255, 255, 255);&quot;&gt;String&lt;/a&gt;&lt;span style=&quot;font-size: 12px; color: rgb(53, 56, 51); font-family: &amp;quot;DejaVu Sans Mono&amp;quot;, monospace; white-space: pre; background-color: rgb(255, 255, 255);&quot;&gt;&amp;nbsp;pIdentificacionUsuario, long &lt;/span&gt;&lt;font face=&quot;DejaVu Sans Mono, monospace&quot; color=&quot;#353833&quot;&gt;&lt;span style=&quot;white-space: pre;&quot;&gt;pNumTarjeta,int pMes, int pAÃ±o, int pCodValidacion, int minNoUtilizado)&lt;/span&gt;&lt;/font&gt;&lt;/font&gt;&lt;div&gt;&lt;font style=&quot;&quot;&gt;&lt;font face=&quot;DejaVu Sans Mono, monospace&quot; color=&quot;#353833&quot;&gt;&lt;span style=&quot;white-space: pre;&quot;&gt;+ agregarCarro(String placa, String marca, String modelo)&lt;/span&gt;&lt;/font&gt;&lt;/font&gt;&lt;/div&gt;&lt;div&gt;&lt;font style=&quot;&quot;&gt;&lt;font face=&quot;DejaVu Sans Mono, monospace&quot; color=&quot;#353833&quot;&gt;&lt;span style=&quot;white-space: pre;&quot;&gt;+ toString()&lt;/span&gt;&lt;/font&gt;&lt;/font&gt;&lt;/div&gt;&lt;div&gt;&lt;font style=&quot;&quot;&gt;&lt;font face=&quot;DejaVu Sans Mono, monospace&quot; color=&quot;#353833&quot;&gt;&lt;span style=&quot;white-space: pre;&quot;&gt;+ parquear(&lt;/span&gt;&lt;/font&gt;&lt;/font&gt;&lt;span style=&quot;background-color: initial; white-space: pre;&quot;&gt;&lt;font face=&quot;DejaVu Sans Mono, monospace&quot; color=&quot;#353833&quot;&gt;Carro carro, EspacioDeParqueo espacioSeleccionado, Parqueo parqueo, File archivoParqueo&lt;/font&gt;&lt;/span&gt;&lt;span style=&quot;white-space: pre; color: rgb(53, 56, 51); font-family: &amp;quot;DejaVu Sans Mono&amp;quot;, monospace; background-color: initial;&quot;&gt;)&lt;/span&gt;&lt;/div&gt;&lt;div&gt;&lt;span style=&quot;white-space: pre; color: rgb(53, 56, 51); font-family: &amp;quot;DejaVu Sans Mono&amp;quot;, monospace; background-color: initial;&quot;&gt;+ desaparcar (&lt;/span&gt;&lt;span style=&quot;background-color: initial; white-space: pre;&quot;&gt;&lt;font face=&quot;DejaVu Sans Mono, monospace&quot; color=&quot;#353833&quot;&gt;Carro carro, Parqueo parqueo, File archivoParqueo&lt;/font&gt;&lt;/span&gt;&lt;span style=&quot;background-color: initial; color: rgb(53, 56, 51); font-family: &amp;quot;DejaVu Sans Mono&amp;quot;, monospace; white-space: pre;&quot;&gt;)&lt;/span&gt;&lt;/div&gt;&lt;div&gt;&lt;span style=&quot;background-color: initial; color: rgb(53, 56, 51); font-family: &amp;quot;DejaVu Sans Mono&amp;quot;, monospace; white-space: pre;&quot;&gt;+ comprarTiempo(&lt;/span&gt;&lt;span style=&quot;background-color: initial; white-space: pre;&quot;&gt;&lt;font face=&quot;DejaVu Sans Mono, monospace&quot; color=&quot;#353833&quot;&gt;int cantidad, EspacioDeParqueo espacio, Parqueo parqueo&lt;/font&gt;&lt;/span&gt;&lt;span style=&quot;background-color: initial; color: rgb(53, 56, 51); font-family: &amp;quot;DejaVu Sans Mono&amp;quot;, monospace; white-space: pre;&quot;&gt;)&lt;/span&gt;&lt;/div&gt;&lt;div&gt;&lt;span style=&quot;background-color: initial; color: rgb(53, 56, 51); font-family: &amp;quot;DejaVu Sans Mono&amp;quot;, monospace; white-space: pre;&quot;&gt;+ pagar (&lt;/span&gt;&lt;span style=&quot;background-color: initial; white-space: pre;&quot;&gt;&lt;font face=&quot;DejaVu Sans Mono, monospace&quot; color=&quot;#353833&quot;&gt;Parqueo parqueo, EspacioDeParqueo espacioSeleccionado, Tarjeta tarjeta, int codigoValidacionIngresado&lt;/font&gt;&lt;/span&gt;&lt;span style=&quot;background-color: initial; color: rgb(53, 56, 51); font-family: &amp;quot;DejaVu Sans Mono&amp;quot;, monospace; white-space: pre;&quot;&gt;)&lt;/span&gt;&lt;/div&gt;&lt;/div&gt;" style="text;strokeColor=none;fillColor=none;align=left;verticalAlign=top;spacingLeft=4;spacingRight=4;overflow=hidden;rotatable=0;points=[[0,0.5],[1,0.5]];portConstraint=eastwest;whiteSpace=wrap;html=1;" vertex="1" parent="GoCfgRTNsYvVOT-GzP8W-5">
          <mxGeometry y="58" width="850" height="132" as="geometry" />
        </mxCell>
        <mxCell id="GoCfgRTNsYvVOT-GzP8W-10" value="Extends" style="endArrow=block;endSize=16;endFill=0;html=1;rounded=0;exitX=0.5;exitY=0;exitDx=0;exitDy=0;" edge="1" parent="1" source="GoCfgRTNsYvVOT-GzP8W-5">
          <mxGeometry width="160" relative="1" as="geometry">
            <mxPoint x="10" y="650" as="sourcePoint" />
            <mxPoint x="98" y="554" as="targetPoint" />
          </mxGeometry>
        </mxCell>
        <mxCell id="GoCfgRTNsYvVOT-GzP8W-11" value="Tarjeta" style="swimlane;fontStyle=1;align=center;verticalAlign=top;childLayout=stackLayout;horizontal=1;startSize=26;horizontalStack=0;resizeParent=1;resizeParentMax=0;resizeLast=0;collapsible=1;marginBottom=0;whiteSpace=wrap;html=1;" vertex="1" parent="1">
          <mxGeometry x="1870" y="710" width="450" height="120" as="geometry" />
        </mxCell>
        <mxCell id="GoCfgRTNsYvVOT-GzP8W-12" value="- numeroTarjeta: long&lt;div&gt;- fechaVencimiento: YearMonth&lt;/div&gt;&lt;div&gt;- codigoValidacion: int&lt;/div&gt;" style="text;strokeColor=none;fillColor=none;align=left;verticalAlign=top;spacingLeft=4;spacingRight=4;overflow=hidden;rotatable=0;points=[[0,0.5],[1,0.5]];portConstraint=eastwest;whiteSpace=wrap;html=1;" vertex="1" parent="GoCfgRTNsYvVOT-GzP8W-11">
          <mxGeometry y="26" width="450" height="54" as="geometry" />
        </mxCell>
        <mxCell id="GoCfgRTNsYvVOT-GzP8W-13" value="" style="line;strokeWidth=1;fillColor=none;align=left;verticalAlign=middle;spacingTop=-1;spacingLeft=3;spacingRight=3;rotatable=0;labelPosition=right;points=[];portConstraint=eastwest;strokeColor=inherit;" vertex="1" parent="GoCfgRTNsYvVOT-GzP8W-11">
          <mxGeometry y="80" width="450" height="8" as="geometry" />
        </mxCell>
        <mxCell id="GoCfgRTNsYvVOT-GzP8W-14" value="+&amp;nbsp;Tarjeta(long numeroTarjeta, YearMonth fechaVencimiento, int codigoValidacion)&lt;div&gt;&lt;br&gt;&lt;/div&gt;" style="text;strokeColor=none;fillColor=none;align=left;verticalAlign=top;spacingLeft=4;spacingRight=4;overflow=hidden;rotatable=0;points=[[0,0.5],[1,0.5]];portConstraint=eastwest;whiteSpace=wrap;html=1;" vertex="1" parent="GoCfgRTNsYvVOT-GzP8W-11">
          <mxGeometry y="88" width="450" height="32" as="geometry" />
        </mxCell>
        <mxCell id="GoCfgRTNsYvVOT-GzP8W-15" value="" style="endArrow=diamondThin;endFill=1;endSize=24;html=1;rounded=0;exitX=-0.005;exitY=0.753;exitDx=0;exitDy=0;entryX=1.002;entryY=0.333;entryDx=0;entryDy=0;entryPerimeter=0;exitPerimeter=0;" edge="1" parent="1" source="GoCfgRTNsYvVOT-GzP8W-12" target="GoCfgRTNsYvVOT-GzP8W-8">
          <mxGeometry width="160" relative="1" as="geometry">
            <mxPoint x="1820" y="860" as="sourcePoint" />
            <mxPoint x="1690" y="680" as="targetPoint" />
          </mxGeometry>
        </mxCell>
        <mxCell id="GoCfgRTNsYvVOT-GzP8W-16" value="" style="endArrow=diamondThin;endFill=1;endSize=24;html=1;rounded=0;entryX=0.5;entryY=1.022;entryDx=0;entryDy=0;entryPerimeter=0;exitX=0.5;exitY=0;exitDx=0;exitDy=0;" edge="1" parent="1" source="GoCfgRTNsYvVOT-GzP8W-17" target="GoCfgRTNsYvVOT-GzP8W-8">
          <mxGeometry width="160" relative="1" as="geometry">
            <mxPoint x="1228" y="1040" as="sourcePoint" />
            <mxPoint x="1460" y="1062" as="targetPoint" />
            <Array as="points" />
          </mxGeometry>
        </mxCell>
        <mxCell id="GoCfgRTNsYvVOT-GzP8W-17" value="Carro" style="swimlane;fontStyle=1;align=center;verticalAlign=top;childLayout=stackLayout;horizontal=1;startSize=26;horizontalStack=0;resizeParent=1;resizeParentMax=0;resizeLast=0;collapsible=1;marginBottom=0;whiteSpace=wrap;html=1;" vertex="1" parent="1">
          <mxGeometry x="1035" y="1451" width="450" height="140" as="geometry" />
        </mxCell>
        <mxCell id="GoCfgRTNsYvVOT-GzP8W-18" value="- placa: String&lt;div&gt;- marca: String&lt;/div&gt;&lt;div&gt;- modelo: String&lt;/div&gt;" style="text;strokeColor=none;fillColor=none;align=left;verticalAlign=top;spacingLeft=4;spacingRight=4;overflow=hidden;rotatable=0;points=[[0,0.5],[1,0.5]];portConstraint=eastwest;whiteSpace=wrap;html=1;" vertex="1" parent="GoCfgRTNsYvVOT-GzP8W-17">
          <mxGeometry y="26" width="450" height="54" as="geometry" />
        </mxCell>
        <mxCell id="GoCfgRTNsYvVOT-GzP8W-19" value="" style="line;strokeWidth=1;fillColor=none;align=left;verticalAlign=middle;spacingTop=-1;spacingLeft=3;spacingRight=3;rotatable=0;labelPosition=right;points=[];portConstraint=eastwest;strokeColor=inherit;" vertex="1" parent="GoCfgRTNsYvVOT-GzP8W-17">
          <mxGeometry y="80" width="450" height="8" as="geometry" />
        </mxCell>
        <mxCell id="GoCfgRTNsYvVOT-GzP8W-20" value="&lt;div&gt;+Carro(String pPlaca, String pMarca, String pModelo)&lt;/div&gt;&lt;div&gt;+ agregarMulta(Multa multa)&lt;/div&gt;" style="text;strokeColor=none;fillColor=none;align=left;verticalAlign=top;spacingLeft=4;spacingRight=4;overflow=hidden;rotatable=0;points=[[0,0.5],[1,0.5]];portConstraint=eastwest;whiteSpace=wrap;html=1;" vertex="1" parent="GoCfgRTNsYvVOT-GzP8W-17">
          <mxGeometry y="88" width="450" height="52" as="geometry" />
        </mxCell>
        <mxCell id="GoCfgRTNsYvVOT-GzP8W-21" value="1" style="text;html=1;align=center;verticalAlign=middle;resizable=0;points=[];autosize=1;strokeColor=none;fillColor=none;" vertex="1" parent="1">
          <mxGeometry x="1260" y="890" width="30" height="30" as="geometry" />
        </mxCell>
        <mxCell id="GoCfgRTNsYvVOT-GzP8W-23" value="&lt;font style=&quot;font-size: 18px;&quot;&gt;*&lt;/font&gt;" style="text;html=1;align=center;verticalAlign=middle;resizable=0;points=[];autosize=1;strokeColor=none;fillColor=none;" vertex="1" parent="1">
          <mxGeometry x="1255" y="1420" width="30" height="40" as="geometry" />
        </mxCell>
        <mxCell id="GoCfgRTNsYvVOT-GzP8W-24" value="Administrador" style="swimlane;fontStyle=1;align=center;verticalAlign=top;childLayout=stackLayout;horizontal=1;startSize=26;horizontalStack=0;resizeParent=1;resizeParentMax=0;resizeLast=0;collapsible=1;marginBottom=0;whiteSpace=wrap;html=1;" vertex="1" parent="1">
          <mxGeometry x="-270" y="670" width="730" height="80" as="geometry" />
        </mxCell>
        <mxCell id="GoCfgRTNsYvVOT-GzP8W-26" value="" style="line;strokeWidth=1;fillColor=none;align=left;verticalAlign=middle;spacingTop=-1;spacingLeft=3;spacingRight=3;rotatable=0;labelPosition=right;points=[];portConstraint=eastwest;strokeColor=inherit;" vertex="1" parent="GoCfgRTNsYvVOT-GzP8W-24">
          <mxGeometry y="26" width="730" height="8" as="geometry" />
        </mxCell>
        <mxCell id="GoCfgRTNsYvVOT-GzP8W-27" value="+&amp;nbsp;Administrador(String pNombre, String pApellido, String pTelefono, String pCorreo, String pDireccionFisica, LocalDate pFechaIngreso,&lt;div&gt;String pPin, String pIdentificacionUsuario)&lt;/div&gt;" style="text;strokeColor=none;fillColor=none;align=left;verticalAlign=top;spacingLeft=4;spacingRight=4;overflow=hidden;rotatable=0;points=[[0,0.5],[1,0.5]];portConstraint=eastwest;whiteSpace=wrap;html=1;" vertex="1" parent="GoCfgRTNsYvVOT-GzP8W-24">
          <mxGeometry y="34" width="730" height="46" as="geometry" />
        </mxCell>
        <mxCell id="GoCfgRTNsYvVOT-GzP8W-28" value="Extends" style="endArrow=block;endSize=16;endFill=0;html=1;rounded=0;exitX=0.5;exitY=0;exitDx=0;exitDy=0;entryX=0.499;entryY=1.049;entryDx=0;entryDy=0;entryPerimeter=0;" edge="1" parent="1" source="GoCfgRTNsYvVOT-GzP8W-24" target="GoCfgRTNsYvVOT-GzP8W-4">
          <mxGeometry width="160" relative="1" as="geometry">
            <mxPoint x="1267" y="650" as="sourcePoint" />
            <mxPoint x="-370" y="594" as="targetPoint" />
          </mxGeometry>
        </mxCell>
        <mxCell id="GoCfgRTNsYvVOT-GzP8W-32" value="Extends" style="endArrow=block;endSize=16;endFill=0;html=1;rounded=0;entryX=0.498;entryY=1.031;entryDx=0;entryDy=0;entryPerimeter=0;exitX=0.5;exitY=0;exitDx=0;exitDy=0;" edge="1" parent="1" source="GoCfgRTNsYvVOT-GzP8W-39" target="GoCfgRTNsYvVOT-GzP8W-4">
          <mxGeometry width="160" relative="1" as="geometry">
            <mxPoint x="-955" y="669.9999999999998" as="sourcePoint" />
            <mxPoint x="-723.5" y="910" as="targetPoint" />
          </mxGeometry>
        </mxCell>
        <mxCell id="GoCfgRTNsYvVOT-GzP8W-33" value="1" style="text;html=1;align=center;verticalAlign=middle;resizable=0;points=[];autosize=1;strokeColor=none;fillColor=none;" vertex="1" parent="1">
          <mxGeometry x="1680" y="740" width="30" height="30" as="geometry" />
        </mxCell>
        <mxCell id="GoCfgRTNsYvVOT-GzP8W-34" value="1" style="text;html=1;align=center;verticalAlign=middle;resizable=0;points=[];autosize=1;strokeColor=none;fillColor=none;" vertex="1" parent="1">
          <mxGeometry x="1840" y="740" width="30" height="30" as="geometry" />
        </mxCell>
        <mxCell id="GoCfgRTNsYvVOT-GzP8W-39" value="Inspector" style="swimlane;fontStyle=1;align=center;verticalAlign=top;childLayout=stackLayout;horizontal=1;startSize=26;horizontalStack=0;resizeParent=1;resizeParentMax=0;resizeLast=0;collapsible=1;marginBottom=0;whiteSpace=wrap;html=1;" vertex="1" parent="1">
          <mxGeometry x="-1540" y="670" width="460" height="100" as="geometry" />
        </mxCell>
        <mxCell id="GoCfgRTNsYvVOT-GzP8W-40" value="-&amp;nbsp; codigoTerminal: String" style="text;strokeColor=none;fillColor=none;align=left;verticalAlign=top;spacingLeft=4;spacingRight=4;overflow=hidden;rotatable=0;points=[[0,0.5],[1,0.5]];portConstraint=eastwest;whiteSpace=wrap;html=1;" vertex="1" parent="GoCfgRTNsYvVOT-GzP8W-39">
          <mxGeometry y="26" width="460" height="24" as="geometry" />
        </mxCell>
        <mxCell id="GoCfgRTNsYvVOT-GzP8W-41" value="" style="line;strokeWidth=1;fillColor=none;align=left;verticalAlign=middle;spacingTop=-1;spacingLeft=3;spacingRight=3;rotatable=0;labelPosition=right;points=[];portConstraint=eastwest;strokeColor=inherit;" vertex="1" parent="GoCfgRTNsYvVOT-GzP8W-39">
          <mxGeometry y="50" width="460" height="8" as="geometry" />
        </mxCell>
        <mxCell id="GoCfgRTNsYvVOT-GzP8W-42" value="+ toString()&lt;div&gt;+ multar(Parqueo parqueo, EspacioDeParqueo espacio, String placaSeleccionada)&lt;/div&gt;" style="text;strokeColor=none;fillColor=none;align=left;verticalAlign=top;spacingLeft=4;spacingRight=4;overflow=hidden;rotatable=0;points=[[0,0.5],[1,0.5]];portConstraint=eastwest;whiteSpace=wrap;html=1;" vertex="1" parent="GoCfgRTNsYvVOT-GzP8W-39">
          <mxGeometry y="58" width="460" height="42" as="geometry" />
        </mxCell>
        <mxCell id="GoCfgRTNsYvVOT-GzP8W-44" value="Multa" style="swimlane;fontStyle=1;align=center;verticalAlign=top;childLayout=stackLayout;horizontal=1;startSize=26;horizontalStack=0;resizeParent=1;resizeParentMax=0;resizeLast=0;collapsible=1;marginBottom=0;whiteSpace=wrap;html=1;" vertex="1" parent="1">
          <mxGeometry x="-1485" y="1050" width="350" height="170" as="geometry" />
        </mxCell>
        <mxCell id="GoCfgRTNsYvVOT-GzP8W-45" value="- carro: Carro&lt;div&gt;- costoMulta: int&lt;/div&gt;&lt;div&gt;- fechaMulta: LocalDateTime&lt;/div&gt;&lt;div&gt;- estadoPago: boolean&lt;/div&gt;&lt;div&gt;- descripcion: String&lt;/div&gt;" style="text;strokeColor=none;fillColor=none;align=left;verticalAlign=top;spacingLeft=4;spacingRight=4;overflow=hidden;rotatable=0;points=[[0,0.5],[1,0.5]];portConstraint=eastwest;whiteSpace=wrap;html=1;" vertex="1" parent="GoCfgRTNsYvVOT-GzP8W-44">
          <mxGeometry y="26" width="350" height="84" as="geometry" />
        </mxCell>
        <mxCell id="GoCfgRTNsYvVOT-GzP8W-46" value="" style="line;strokeWidth=1;fillColor=none;align=left;verticalAlign=middle;spacingTop=-1;spacingLeft=3;spacingRight=3;rotatable=0;labelPosition=right;points=[];portConstraint=eastwest;strokeColor=inherit;" vertex="1" parent="GoCfgRTNsYvVOT-GzP8W-44">
          <mxGeometry y="110" width="350" height="8" as="geometry" />
        </mxCell>
        <mxCell id="GoCfgRTNsYvVOT-GzP8W-47" value="+&amp;nbsp;Multa(Carro carro, int costoMulta, LocalDateTime fechaMulta, boolean estadoPago)&lt;div&gt;+ toString()&lt;/div&gt;" style="text;strokeColor=none;fillColor=none;align=left;verticalAlign=top;spacingLeft=4;spacingRight=4;overflow=hidden;rotatable=0;points=[[0,0.5],[1,0.5]];portConstraint=eastwest;whiteSpace=wrap;html=1;" vertex="1" parent="GoCfgRTNsYvVOT-GzP8W-44">
          <mxGeometry y="118" width="350" height="52" as="geometry" />
        </mxCell>
        <mxCell id="GoCfgRTNsYvVOT-GzP8W-48" value="" style="endArrow=diamondThin;endFill=0;endSize=24;html=1;rounded=0;entryX=0.496;entryY=1.074;entryDx=0;entryDy=0;entryPerimeter=0;exitX=0.5;exitY=0;exitDx=0;exitDy=0;" edge="1" parent="1" source="GoCfgRTNsYvVOT-GzP8W-44" target="GoCfgRTNsYvVOT-GzP8W-42">
          <mxGeometry width="160" relative="1" as="geometry">
            <mxPoint x="-1310" y="920" as="sourcePoint" />
            <mxPoint x="-1480" y="880" as="targetPoint" />
          </mxGeometry>
        </mxCell>
        <mxCell id="GoCfgRTNsYvVOT-GzP8W-49" value="&lt;font style=&quot;font-size: 18px;&quot;&gt;*&lt;/font&gt;" style="text;html=1;align=center;verticalAlign=middle;resizable=0;points=[];autosize=1;strokeColor=none;fillColor=none;" vertex="1" parent="1">
          <mxGeometry x="-1270" y="1000" width="30" height="40" as="geometry" />
        </mxCell>
        <mxCell id="GoCfgRTNsYvVOT-GzP8W-50" value="&lt;font style=&quot;font-size: 18px;&quot;&gt;1&lt;/font&gt;" style="text;html=1;align=center;verticalAlign=middle;resizable=0;points=[];autosize=1;strokeColor=none;fillColor=none;" vertex="1" parent="1">
          <mxGeometry x="-1300" y="770" width="30" height="40" as="geometry" />
        </mxCell>
        <mxCell id="GoCfgRTNsYvVOT-GzP8W-51" value="HistorialMultas" style="swimlane;fontStyle=1;align=center;verticalAlign=top;childLayout=stackLayout;horizontal=1;startSize=26;horizontalStack=0;resizeParent=1;resizeParentMax=0;resizeLast=0;collapsible=1;marginBottom=0;whiteSpace=wrap;html=1;" vertex="1" parent="1">
          <mxGeometry x="-880" y="1553.5" width="460" height="90" as="geometry" />
        </mxCell>
        <mxCell id="GoCfgRTNsYvVOT-GzP8W-53" value="" style="line;strokeWidth=1;fillColor=none;align=left;verticalAlign=middle;spacingTop=-1;spacingLeft=3;spacingRight=3;rotatable=0;labelPosition=right;points=[];portConstraint=eastwest;strokeColor=inherit;" vertex="1" parent="GoCfgRTNsYvVOT-GzP8W-51">
          <mxGeometry y="26" width="460" height="8" as="geometry" />
        </mxCell>
        <mxCell id="GoCfgRTNsYvVOT-GzP8W-54" value="+ HistorialMultas()&lt;div&gt;+ agregarMulta(Multa multa, String inspector)&lt;/div&gt;&lt;div&gt;+ toString()&lt;/div&gt;&lt;div&gt;&lt;br&gt;&lt;/div&gt;" style="text;strokeColor=none;fillColor=none;align=left;verticalAlign=top;spacingLeft=4;spacingRight=4;overflow=hidden;rotatable=0;points=[[0,0.5],[1,0.5]];portConstraint=eastwest;whiteSpace=wrap;html=1;" vertex="1" parent="GoCfgRTNsYvVOT-GzP8W-51">
          <mxGeometry y="34" width="460" height="56" as="geometry" />
        </mxCell>
        <mxCell id="GoCfgRTNsYvVOT-GzP8W-55" value="HistorialParqueo" style="swimlane;fontStyle=1;align=center;verticalAlign=top;childLayout=stackLayout;horizontal=1;startSize=26;horizontalStack=0;resizeParent=1;resizeParentMax=0;resizeLast=0;collapsible=1;marginBottom=0;whiteSpace=wrap;html=1;" vertex="1" parent="1">
          <mxGeometry x="-730" y="1926" width="460" height="90" as="geometry" />
        </mxCell>
        <mxCell id="GoCfgRTNsYvVOT-GzP8W-56" value="" style="line;strokeWidth=1;fillColor=none;align=left;verticalAlign=middle;spacingTop=-1;spacingLeft=3;spacingRight=3;rotatable=0;labelPosition=right;points=[];portConstraint=eastwest;strokeColor=inherit;" vertex="1" parent="GoCfgRTNsYvVOT-GzP8W-55">
          <mxGeometry y="26" width="460" height="8" as="geometry" />
        </mxCell>
        <mxCell id="GoCfgRTNsYvVOT-GzP8W-57" value="&lt;div&gt;+ HistorialParqueo()&lt;/div&gt;&lt;div&gt;+ toString()&lt;/div&gt;&lt;div&gt;+ agregarHistorialParqueo(EspacioDeParqueo espacio)&lt;/div&gt;" style="text;strokeColor=none;fillColor=none;align=left;verticalAlign=top;spacingLeft=4;spacingRight=4;overflow=hidden;rotatable=0;points=[[0,0.5],[1,0.5]];portConstraint=eastwest;whiteSpace=wrap;html=1;" vertex="1" parent="GoCfgRTNsYvVOT-GzP8W-55">
          <mxGeometry y="34" width="460" height="56" as="geometry" />
        </mxCell>
        <mxCell id="GoCfgRTNsYvVOT-GzP8W-58" value="Parqueo" style="swimlane;fontStyle=1;align=center;verticalAlign=top;childLayout=stackLayout;horizontal=1;startSize=26;horizontalStack=0;resizeParent=1;resizeParentMax=0;resizeLast=0;collapsible=1;marginBottom=0;whiteSpace=wrap;html=1;" vertex="1" parent="1">
          <mxGeometry x="-175" y="1451" width="640" height="270" as="geometry" />
        </mxCell>
        <mxCell id="GoCfgRTNsYvVOT-GzP8W-59" value="- codigoTerminal: String&lt;div&gt;- tiempoMinimo: int&lt;/div&gt;&lt;div&gt;- precioHora: int&lt;/div&gt;&lt;div&gt;- abre: LocalTime&lt;/div&gt;&lt;div&gt;- cierra: LocalTime&lt;/div&gt;&lt;div&gt;- costoMulta: int&lt;/div&gt;&lt;div&gt;&lt;br&gt;&lt;/div&gt;" style="text;strokeColor=none;fillColor=none;align=left;verticalAlign=top;spacingLeft=4;spacingRight=4;overflow=hidden;rotatable=0;points=[[0,0.5],[1,0.5]];portConstraint=eastwest;whiteSpace=wrap;html=1;" vertex="1" parent="GoCfgRTNsYvVOT-GzP8W-58">
          <mxGeometry y="26" width="640" height="94" as="geometry" />
        </mxCell>
        <mxCell id="GoCfgRTNsYvVOT-GzP8W-60" value="" style="line;strokeWidth=1;fillColor=none;align=left;verticalAlign=middle;spacingTop=-1;spacingLeft=3;spacingRight=3;rotatable=0;labelPosition=right;points=[];portConstraint=eastwest;strokeColor=inherit;" vertex="1" parent="GoCfgRTNsYvVOT-GzP8W-58">
          <mxGeometry y="120" width="640" height="8" as="geometry" />
        </mxCell>
        <mxCell id="GoCfgRTNsYvVOT-GzP8W-61" value="+ Parqueo(String pCodigoTerminal, int pTiempoMinimo, int pPrecioHora, String pAbre, String pCierra, int pCostoMulta)&lt;div&gt;+ toString()&lt;/div&gt;&lt;div&gt;+ agregarEspacioParqueo(EspacioDeParqueo espacio)&lt;/div&gt;&lt;div&gt;+ espacioExiste(int numeroEspacio)&amp;nbsp;&lt;/div&gt;&lt;div&gt;+ agregarGrupoEspacios(int inicio, int fin)&lt;/div&gt;&lt;div&gt;+ eliminarEspacio(int numeroEspacio)&lt;/div&gt;&lt;div&gt;+ eliminarGrupoEspacios(int inicio, int fin)&lt;/div&gt;&lt;div&gt;+ mostrarEspaciosYCarros()&lt;/div&gt;&lt;div&gt;+ estaDentroDeHorario()&lt;/div&gt;&lt;div&gt;&lt;br&gt;&lt;/div&gt;&lt;div&gt;&lt;br&gt;&lt;/div&gt;" style="text;strokeColor=none;fillColor=none;align=left;verticalAlign=top;spacingLeft=4;spacingRight=4;overflow=hidden;rotatable=0;points=[[0,0.5],[1,0.5]];portConstraint=eastwest;whiteSpace=wrap;html=1;" vertex="1" parent="GoCfgRTNsYvVOT-GzP8W-58">
          <mxGeometry y="128" width="640" height="142" as="geometry" />
        </mxCell>
        <mxCell id="GoCfgRTNsYvVOT-GzP8W-62" value="EspacioDeParqueo" style="swimlane;fontStyle=1;align=center;verticalAlign=top;childLayout=stackLayout;horizontal=1;startSize=26;horizontalStack=0;resizeParent=1;resizeParentMax=0;resizeLast=0;collapsible=1;marginBottom=0;whiteSpace=wrap;html=1;" vertex="1" parent="1">
          <mxGeometry x="-100" y="1861" width="490" height="210" as="geometry" />
        </mxCell>
        <mxCell id="GoCfgRTNsYvVOT-GzP8W-63" value="&lt;div&gt;- numeroEspacio: int&lt;/div&gt;&lt;div&gt;- tiempoComprado: int&lt;/div&gt;&lt;div&gt;- disponible: boolean&lt;/div&gt;&lt;div&gt;- estadoPago: boolean&lt;/div&gt;&lt;div&gt;- horaInicioParqueo: LocalDateTime&lt;/div&gt;&lt;div&gt;- horaFinParqueo: LocalDateTime&lt;/div&gt;" style="text;strokeColor=none;fillColor=none;align=left;verticalAlign=top;spacingLeft=4;spacingRight=4;overflow=hidden;rotatable=0;points=[[0,0.5],[1,0.5]];portConstraint=eastwest;whiteSpace=wrap;html=1;" vertex="1" parent="GoCfgRTNsYvVOT-GzP8W-62">
          <mxGeometry y="26" width="490" height="94" as="geometry" />
        </mxCell>
        <mxCell id="GoCfgRTNsYvVOT-GzP8W-64" value="" style="line;strokeWidth=1;fillColor=none;align=left;verticalAlign=middle;spacingTop=-1;spacingLeft=3;spacingRight=3;rotatable=0;labelPosition=right;points=[];portConstraint=eastwest;strokeColor=inherit;" vertex="1" parent="GoCfgRTNsYvVOT-GzP8W-62">
          <mxGeometry y="120" width="490" height="8" as="geometry" />
        </mxCell>
        <mxCell id="GoCfgRTNsYvVOT-GzP8W-65" value="+&amp;nbsp;&amp;nbsp;EspacioDeParqueo(int pNumeroEspacio)&lt;div&gt;+&amp;nbsp;calcularTiempoParqueo(EspacioDeParqueo espacio)&lt;/div&gt;&lt;div&gt;+&amp;nbsp;calcularMontoAPagar(EspacioDeParqueo espacio, Parqueo parqueo, Cliente cliente)&lt;/div&gt;&lt;div&gt;+&amp;nbsp;calcularTiempoRestante()&lt;/div&gt;&lt;div&gt;+toString()&lt;/div&gt;" style="text;strokeColor=none;fillColor=none;align=left;verticalAlign=top;spacingLeft=4;spacingRight=4;overflow=hidden;rotatable=0;points=[[0,0.5],[1,0.5]];portConstraint=eastwest;whiteSpace=wrap;html=1;" vertex="1" parent="GoCfgRTNsYvVOT-GzP8W-62">
          <mxGeometry y="128" width="490" height="82" as="geometry" />
        </mxCell>
        <mxCell id="GoCfgRTNsYvVOT-GzP8W-66" value="" style="endArrow=diamondThin;endFill=1;endSize=24;html=1;rounded=0;entryX=0.504;entryY=1.006;entryDx=0;entryDy=0;entryPerimeter=0;exitX=0.5;exitY=0;exitDx=0;exitDy=0;" edge="1" parent="1" source="GoCfgRTNsYvVOT-GzP8W-62" target="GoCfgRTNsYvVOT-GzP8W-61">
          <mxGeometry width="160" relative="1" as="geometry">
            <mxPoint x="475" y="1943" as="sourcePoint" />
            <mxPoint x="475" y="1776" as="targetPoint" />
            <Array as="points" />
          </mxGeometry>
        </mxCell>
        <mxCell id="GoCfgRTNsYvVOT-GzP8W-67" value="1" style="text;html=1;align=center;verticalAlign=middle;resizable=0;points=[];autosize=1;strokeColor=none;fillColor=none;" vertex="1" parent="1">
          <mxGeometry x="155" y="1731" width="30" height="30" as="geometry" />
        </mxCell>
        <mxCell id="GoCfgRTNsYvVOT-GzP8W-68" value="&lt;font style=&quot;font-size: 18px;&quot;&gt;*&lt;/font&gt;" style="text;html=1;align=center;verticalAlign=middle;resizable=0;points=[];autosize=1;strokeColor=none;fillColor=none;" vertex="1" parent="1">
          <mxGeometry x="145" y="1836" width="30" height="40" as="geometry" />
        </mxCell>
        <mxCell id="GoCfgRTNsYvVOT-GzP8W-69" value="" style="endArrow=diamondThin;endFill=1;endSize=24;html=1;rounded=0;entryX=0.503;entryY=1.005;entryDx=0;entryDy=0;entryPerimeter=0;exitX=0.5;exitY=0;exitDx=0;exitDy=0;" edge="1" parent="1" source="GoCfgRTNsYvVOT-GzP8W-55" target="GoCfgRTNsYvVOT-GzP8W-61">
          <mxGeometry width="160" relative="1" as="geometry">
            <mxPoint x="-445" y="1770" as="sourcePoint" />
            <mxPoint x="-442" y="1626" as="targetPoint" />
            <Array as="points" />
          </mxGeometry>
        </mxCell>
        <mxCell id="GoCfgRTNsYvVOT-GzP8W-70" value="1" style="text;html=1;align=center;verticalAlign=middle;resizable=0;points=[];autosize=1;strokeColor=none;fillColor=none;" vertex="1" parent="1">
          <mxGeometry x="105" y="1731" width="30" height="30" as="geometry" />
        </mxCell>
        <mxCell id="GoCfgRTNsYvVOT-GzP8W-71" value="1" style="text;html=1;align=center;verticalAlign=middle;resizable=0;points=[];autosize=1;strokeColor=none;fillColor=none;" vertex="1" parent="1">
          <mxGeometry x="-525" y="1896" width="30" height="30" as="geometry" />
        </mxCell>
        <mxCell id="GoCfgRTNsYvVOT-GzP8W-74" value="" style="endArrow=none;html=1;edgeStyle=orthogonalEdgeStyle;rounded=0;entryX=0.499;entryY=1.035;entryDx=0;entryDy=0;entryPerimeter=0;" edge="1" parent="1" source="GoCfgRTNsYvVOT-GzP8W-61" target="GoCfgRTNsYvVOT-GzP8W-20">
          <mxGeometry relative="1" as="geometry">
            <mxPoint x="545" y="1691" as="sourcePoint" />
            <mxPoint x="1182.52" y="1721" as="targetPoint" />
            <Array as="points">
              <mxPoint x="1183" y="1691" />
              <mxPoint x="1183" y="1593" />
            </Array>
          </mxGeometry>
        </mxCell>
        <mxCell id="GoCfgRTNsYvVOT-GzP8W-77" value="1" style="text;html=1;align=center;verticalAlign=middle;resizable=0;points=[];autosize=1;strokeColor=none;fillColor=none;" vertex="1" parent="1">
          <mxGeometry x="390" y="1956" width="30" height="30" as="geometry" />
        </mxCell>
        <mxCell id="GoCfgRTNsYvVOT-GzP8W-78" value="1" style="text;html=1;align=center;verticalAlign=middle;resizable=0;points=[];autosize=1;strokeColor=none;fillColor=none;" vertex="1" parent="1">
          <mxGeometry x="1225" y="1591" width="30" height="30" as="geometry" />
        </mxCell>
        <mxCell id="GoCfgRTNsYvVOT-GzP8W-79" value="" style="endArrow=diamondThin;endFill=1;endSize=24;html=1;rounded=0;exitX=1;exitY=0.5;exitDx=0;exitDy=0;entryX=-0.007;entryY=0.251;entryDx=0;entryDy=0;entryPerimeter=0;" edge="1" parent="1" source="GoCfgRTNsYvVOT-GzP8W-54" target="GoCfgRTNsYvVOT-GzP8W-61">
          <mxGeometry width="160" relative="1" as="geometry">
            <mxPoint x="-940" y="1574" as="sourcePoint" />
            <mxPoint x="-180" y="1280" as="targetPoint" />
            <Array as="points" />
          </mxGeometry>
        </mxCell>
        <mxCell id="GoCfgRTNsYvVOT-GzP8W-80" value="1" style="text;html=1;align=center;verticalAlign=middle;resizable=0;points=[];autosize=1;strokeColor=none;fillColor=none;" vertex="1" parent="1">
          <mxGeometry x="-420" y="1583.5" width="30" height="30" as="geometry" />
        </mxCell>
        <mxCell id="GoCfgRTNsYvVOT-GzP8W-81" value="1" style="text;html=1;align=center;verticalAlign=middle;resizable=0;points=[];autosize=1;strokeColor=none;fillColor=none;" vertex="1" parent="1">
          <mxGeometry x="-210" y="1640" width="30" height="30" as="geometry" />
        </mxCell>
        <mxCell id="GoCfgRTNsYvVOT-GzP8W-82" value="" style="endArrow=diamondThin;endFill=0;endSize=24;html=1;rounded=0;exitX=1;exitY=0.5;exitDx=0;exitDy=0;entryX=0;entryY=0.5;entryDx=0;entryDy=0;" edge="1" parent="1" source="GoCfgRTNsYvVOT-GzP8W-45" target="GoCfgRTNsYvVOT-GzP8W-54">
          <mxGeometry width="160" relative="1" as="geometry">
            <mxPoint x="-878" y="1257" as="sourcePoint" />
            <mxPoint x="-950" y="1070" as="targetPoint" />
          </mxGeometry>
        </mxCell>
        <mxCell id="GoCfgRTNsYvVOT-GzP8W-83" value="" style="endArrow=diamondThin;endFill=0;endSize=24;html=1;rounded=0;entryX=0;entryY=0.5;entryDx=0;entryDy=0;exitX=0.998;exitY=1.042;exitDx=0;exitDy=0;exitPerimeter=0;" edge="1" parent="1" source="GoCfgRTNsYvVOT-GzP8W-40" target="GoCfgRTNsYvVOT-GzP8W-54">
          <mxGeometry width="160" relative="1" as="geometry">
            <mxPoint x="-1180" y="1070" as="sourcePoint" />
            <mxPoint x="-1182" y="923" as="targetPoint" />
          </mxGeometry>
        </mxCell>
        <mxCell id="GoCfgRTNsYvVOT-GzP8W-84" value="1" style="text;html=1;align=center;verticalAlign=middle;resizable=0;points=[];autosize=1;strokeColor=none;fillColor=none;" vertex="1" parent="1">
          <mxGeometry x="-880" y="1523.5" width="30" height="30" as="geometry" />
        </mxCell>
        <mxCell id="GoCfgRTNsYvVOT-GzP8W-85" value="1" style="text;html=1;align=center;verticalAlign=middle;resizable=0;points=[];autosize=1;strokeColor=none;fillColor=none;" vertex="1" parent="1">
          <mxGeometry x="-910" y="1628.5" width="30" height="30" as="geometry" />
        </mxCell>
        <mxCell id="GoCfgRTNsYvVOT-GzP8W-86" value="&lt;font style=&quot;font-size: 18px;&quot;&gt;*&lt;/font&gt;" style="text;html=1;align=center;verticalAlign=middle;resizable=0;points=[];autosize=1;strokeColor=none;fillColor=none;" vertex="1" parent="1">
          <mxGeometry x="-1110" y="770" width="30" height="40" as="geometry" />
        </mxCell>
        <mxCell id="GoCfgRTNsYvVOT-GzP8W-87" value="&lt;font style=&quot;font-size: 18px;&quot;&gt;*&lt;/font&gt;" style="text;html=1;align=center;verticalAlign=middle;resizable=0;points=[];autosize=1;strokeColor=none;fillColor=none;" vertex="1" parent="1">
          <mxGeometry x="-1135" y="1120" width="30" height="40" as="geometry" />
        </mxCell>
        <mxCell id="GoCfgRTNsYvVOT-GzP8W-88" value="" style="endArrow=diamondThin;endFill=0;endSize=24;html=1;rounded=0;exitX=-0.002;exitY=-0.012;exitDx=0;exitDy=0;exitPerimeter=0;entryX=1;entryY=0.5;entryDx=0;entryDy=0;" edge="1" parent="1" source="GoCfgRTNsYvVOT-GzP8W-65" target="GoCfgRTNsYvVOT-GzP8W-57">
          <mxGeometry width="160" relative="1" as="geometry">
            <mxPoint x="-245" y="1971" as="sourcePoint" />
            <mxPoint x="-205" y="2111" as="targetPoint" />
          </mxGeometry>
        </mxCell>
        <mxCell id="GoCfgRTNsYvVOT-GzP8W-89" value="1" style="text;html=1;align=center;verticalAlign=middle;resizable=0;points=[];autosize=1;strokeColor=none;fillColor=none;" vertex="1" parent="1">
          <mxGeometry x="-275" y="1951" width="30" height="30" as="geometry" />
        </mxCell>
        <mxCell id="GoCfgRTNsYvVOT-GzP8W-90" value="&lt;font style=&quot;font-size: 18px;&quot;&gt;*&lt;/font&gt;" style="text;html=1;align=center;verticalAlign=middle;resizable=0;points=[];autosize=1;strokeColor=none;fillColor=none;" vertex="1" parent="1">
          <mxGeometry x="-135" y="1946" width="30" height="40" as="geometry" />
        </mxCell>
        <mxCell id="GoCfgRTNsYvVOT-GzP8W-94" value="ReporteAdmin" style="swimlane;fontStyle=1;align=center;verticalAlign=top;childLayout=stackLayout;horizontal=1;startSize=26;horizontalStack=0;resizeParent=1;resizeParentMax=0;resizeLast=0;collapsible=1;marginBottom=0;whiteSpace=wrap;html=1;" vertex="1" parent="1">
          <mxGeometry x="-195" y="1090" width="640" height="270" as="geometry" />
        </mxCell>
        <mxCell id="GoCfgRTNsYvVOT-GzP8W-95" value="&lt;div&gt;- fechaInicio: LocalDateTime&lt;/div&gt;&lt;div&gt;- fechaFinal: LocalDateTime&lt;/div&gt;&lt;div&gt;- index: int&lt;/div&gt;&lt;div&gt;- index2: int&lt;/div&gt;" style="text;strokeColor=none;fillColor=none;align=left;verticalAlign=top;spacingLeft=4;spacingRight=4;overflow=hidden;rotatable=0;points=[[0,0.5],[1,0.5]];portConstraint=eastwest;whiteSpace=wrap;html=1;" vertex="1" parent="GoCfgRTNsYvVOT-GzP8W-94">
          <mxGeometry y="26" width="640" height="64" as="geometry" />
        </mxCell>
        <mxCell id="GoCfgRTNsYvVOT-GzP8W-96" value="" style="line;strokeWidth=1;fillColor=none;align=left;verticalAlign=middle;spacingTop=-1;spacingLeft=3;spacingRight=3;rotatable=0;labelPosition=right;points=[];portConstraint=eastwest;strokeColor=inherit;" vertex="1" parent="GoCfgRTNsYvVOT-GzP8W-94">
          <mxGeometry y="90" width="640" height="8" as="geometry" />
        </mxCell>
        <mxCell id="GoCfgRTNsYvVOT-GzP8W-97" value="&lt;div&gt;+&amp;nbsp;ReporteAdmin(Parqueo parqueo, LocalDateTime fechaInicio, LocalDateTime fechaFinal, int index, int index2)&lt;/div&gt;&lt;div&gt;+&amp;nbsp;ingresosDinero()&lt;/div&gt;&lt;div&gt;+&amp;nbsp;ingresosMultas()&lt;/div&gt;&lt;div&gt;+&amp;nbsp;listaEspaciosActuales()&lt;/div&gt;&lt;div&gt;+&amp;nbsp;historialEspaciosUsados()&lt;/div&gt;&lt;div&gt;+&amp;nbsp;historialMultas()&lt;/div&gt;&lt;div&gt;+&amp;nbsp;estadisticaEspacioUnico(int numEspacio)&lt;/div&gt;&lt;div&gt;+&amp;nbsp;estadisticaVariosEspacios(int espacioInicio, int espacioFinal)&lt;/div&gt;&lt;div&gt;+&amp;nbsp;estadisticaTodos()&lt;/div&gt;&lt;div&gt;+&amp;nbsp;revisarEspacioEstadistica()&lt;/div&gt;&lt;div&gt;+&amp;nbsp;generarReporte(File archivoPDF)&lt;/div&gt;" style="text;strokeColor=none;fillColor=none;align=left;verticalAlign=top;spacingLeft=4;spacingRight=4;overflow=hidden;rotatable=0;points=[[0,0.5],[1,0.5]];portConstraint=eastwest;whiteSpace=wrap;html=1;" vertex="1" parent="GoCfgRTNsYvVOT-GzP8W-94">
          <mxGeometry y="98" width="640" height="172" as="geometry" />
        </mxCell>
        <mxCell id="GoCfgRTNsYvVOT-GzP8W-99" value="" style="endArrow=none;html=1;edgeStyle=orthogonalEdgeStyle;rounded=0;exitX=0.5;exitY=0;exitDx=0;exitDy=0;" edge="1" parent="1" source="GoCfgRTNsYvVOT-GzP8W-94" target="GoCfgRTNsYvVOT-GzP8W-100">
          <mxGeometry relative="1" as="geometry">
            <mxPoint x="108.5" y="1030" as="sourcePoint" />
            <mxPoint x="112" y="880" as="targetPoint" />
            <Array as="points">
              <mxPoint x="109" y="1090" />
              <mxPoint x="109" y="1080" />
              <mxPoint x="112" y="1080" />
              <mxPoint x="112" y="750" />
              <mxPoint x="95" y="750" />
            </Array>
          </mxGeometry>
        </mxCell>
        <mxCell id="GoCfgRTNsYvVOT-GzP8W-100" value="1" style="text;html=1;align=center;verticalAlign=middle;resizable=0;points=[];autosize=1;strokeColor=none;fillColor=none;" vertex="1" parent="1">
          <mxGeometry x="80" y="755" width="30" height="30" as="geometry" />
        </mxCell>
        <mxCell id="GoCfgRTNsYvVOT-GzP8W-101" value="1" style="text;html=1;align=center;verticalAlign=middle;resizable=0;points=[];autosize=1;strokeColor=none;fillColor=none;" vertex="1" parent="1">
          <mxGeometry x="70" y="1050" width="30" height="30" as="geometry" />
        </mxCell>
        <mxCell id="GoCfgRTNsYvVOT-GzP8W-102" value="ReporteInspector" style="swimlane;fontStyle=1;align=center;verticalAlign=top;childLayout=stackLayout;horizontal=1;startSize=26;horizontalStack=0;resizeParent=1;resizeParentMax=0;resizeLast=0;collapsible=1;marginBottom=0;whiteSpace=wrap;html=1;" vertex="1" parent="1">
          <mxGeometry x="-900" y="1095" width="640" height="170" as="geometry" />
        </mxCell>
        <mxCell id="GoCfgRTNsYvVOT-GzP8W-103" value="&lt;div&gt;- index: int&lt;/div&gt;&lt;div&gt;- fechaInicio: LocalDateTime&lt;/div&gt;&lt;div&gt;- fechaFinal: LocalDateTime&lt;/div&gt;" style="text;strokeColor=none;fillColor=none;align=left;verticalAlign=top;spacingLeft=4;spacingRight=4;overflow=hidden;rotatable=0;points=[[0,0.5],[1,0.5]];portConstraint=eastwest;whiteSpace=wrap;html=1;" vertex="1" parent="GoCfgRTNsYvVOT-GzP8W-102">
          <mxGeometry y="26" width="640" height="54" as="geometry" />
        </mxCell>
        <mxCell id="GoCfgRTNsYvVOT-GzP8W-104" value="" style="line;strokeWidth=1;fillColor=none;align=left;verticalAlign=middle;spacingTop=-1;spacingLeft=3;spacingRight=3;rotatable=0;labelPosition=right;points=[];portConstraint=eastwest;strokeColor=inherit;" vertex="1" parent="GoCfgRTNsYvVOT-GzP8W-102">
          <mxGeometry y="80" width="640" height="8" as="geometry" />
        </mxCell>
        <mxCell id="GoCfgRTNsYvVOT-GzP8W-105" value="&lt;div&gt;+&amp;nbsp;ReporteInspector(Parqueo parqueo, LocalDateTime fechaInicio, LocalDateTime fechaFinal, int index, Inspector inspector)&lt;/div&gt;&lt;div&gt;+&amp;nbsp;listaEspaciosActuales()&lt;/div&gt;&lt;div&gt;+&amp;nbsp;&amp;nbsp;multasEnTiempo()&lt;/div&gt;&lt;div&gt;+&amp;nbsp;generarReporte(File archivoPDF)&lt;/div&gt;" style="text;strokeColor=none;fillColor=none;align=left;verticalAlign=top;spacingLeft=4;spacingRight=4;overflow=hidden;rotatable=0;points=[[0,0.5],[1,0.5]];portConstraint=eastwest;whiteSpace=wrap;html=1;" vertex="1" parent="GoCfgRTNsYvVOT-GzP8W-102">
          <mxGeometry y="88" width="640" height="82" as="geometry" />
        </mxCell>
        <mxCell id="GoCfgRTNsYvVOT-GzP8W-106" value="" style="endArrow=none;html=1;edgeStyle=orthogonalEdgeStyle;rounded=0;exitX=0.562;exitY=1.006;exitDx=0;exitDy=0;exitPerimeter=0;" edge="1" parent="1" source="GoCfgRTNsYvVOT-GzP8W-97">
          <mxGeometry relative="1" as="geometry">
            <mxPoint x="40" y="1380" as="sourcePoint" />
            <mxPoint x="150" y="1440" as="targetPoint" />
            <Array as="points">
              <mxPoint x="150" y="1450" />
              <mxPoint x="150" y="1450" />
            </Array>
          </mxGeometry>
        </mxCell>
        <mxCell id="GoCfgRTNsYvVOT-GzP8W-110" value="*" style="text;html=1;align=center;verticalAlign=middle;resizable=0;points=[];autosize=1;strokeColor=none;fillColor=none;" vertex="1" parent="1">
          <mxGeometry x="170" y="1360" width="30" height="30" as="geometry" />
        </mxCell>
        <mxCell id="GoCfgRTNsYvVOT-GzP8W-112" value="1" style="text;html=1;align=center;verticalAlign=middle;resizable=0;points=[];autosize=1;strokeColor=none;fillColor=none;" vertex="1" parent="1">
          <mxGeometry x="155" y="1420" width="30" height="30" as="geometry" />
        </mxCell>
        <mxCell id="GoCfgRTNsYvVOT-GzP8W-114" value="" style="endArrow=none;html=1;edgeStyle=orthogonalEdgeStyle;rounded=0;entryX=1;entryY=0.25;entryDx=0;entryDy=0;exitX=0.457;exitY=0.012;exitDx=0;exitDy=0;exitPerimeter=0;" edge="1" parent="1" source="GoCfgRTNsYvVOT-GzP8W-102" target="GoCfgRTNsYvVOT-GzP8W-39">
          <mxGeometry relative="1" as="geometry">
            <mxPoint x="-610" y="925" as="sourcePoint" />
            <mxPoint x="-606.5" y="775" as="targetPoint" />
            <Array as="points">
              <mxPoint x="-607" y="1037" />
              <mxPoint x="-609" y="730" />
              <mxPoint x="-1080" y="730" />
            </Array>
          </mxGeometry>
        </mxCell>
        <mxCell id="GoCfgRTNsYvVOT-GzP8W-115" value="1" style="text;html=1;align=center;verticalAlign=middle;resizable=0;points=[];autosize=1;strokeColor=none;fillColor=none;" vertex="1" parent="1">
          <mxGeometry x="-1080" y="670" width="30" height="30" as="geometry" />
        </mxCell>
        <mxCell id="GoCfgRTNsYvVOT-GzP8W-116" value="*" style="text;html=1;align=center;verticalAlign=middle;resizable=0;points=[];autosize=1;strokeColor=none;fillColor=none;" vertex="1" parent="1">
          <mxGeometry x="-600" y="1060" width="30" height="30" as="geometry" />
        </mxCell>
        <mxCell id="GoCfgRTNsYvVOT-GzP8W-117" value="" style="endArrow=none;html=1;edgeStyle=orthogonalEdgeStyle;rounded=0;entryX=0.472;entryY=1;entryDx=0;entryDy=0;entryPerimeter=0;exitX=-0.005;exitY=0.018;exitDx=0;exitDy=0;exitPerimeter=0;" edge="1" parent="1" source="GoCfgRTNsYvVOT-GzP8W-59" target="GoCfgRTNsYvVOT-GzP8W-105">
          <mxGeometry relative="1" as="geometry">
            <mxPoint x="-260" y="1440" as="sourcePoint" />
            <mxPoint x="-730" y="1280" as="targetPoint" />
            <Array as="points">
              <mxPoint x="-260" y="1479" />
              <mxPoint x="-598" y="1480" />
            </Array>
          </mxGeometry>
        </mxCell>
        <mxCell id="GoCfgRTNsYvVOT-GzP8W-118" value="*" style="text;html=1;align=center;verticalAlign=middle;resizable=0;points=[];autosize=1;strokeColor=none;fillColor=none;" vertex="1" parent="1">
          <mxGeometry x="-595" y="1265" width="30" height="30" as="geometry" />
        </mxCell>
        <mxCell id="GoCfgRTNsYvVOT-GzP8W-119" value="1" style="text;html=1;align=center;verticalAlign=middle;resizable=0;points=[];autosize=1;strokeColor=none;fillColor=none;" vertex="1" parent="1">
          <mxGeometry x="-210" y="1450" width="30" height="30" as="geometry" />
        </mxCell>
        <mxCell id="GoCfgRTNsYvVOT-GzP8W-121" value="ReporteCliente" style="swimlane;fontStyle=1;align=center;verticalAlign=top;childLayout=stackLayout;horizontal=1;startSize=26;horizontalStack=0;resizeParent=1;resizeParentMax=0;resizeLast=0;collapsible=1;marginBottom=0;whiteSpace=wrap;html=1;" vertex="1" parent="1">
          <mxGeometry x="525" y="1100" width="640" height="206" as="geometry" />
        </mxCell>
        <mxCell id="GoCfgRTNsYvVOT-GzP8W-123" value="" style="line;strokeWidth=1;fillColor=none;align=left;verticalAlign=middle;spacingTop=-1;spacingLeft=3;spacingRight=3;rotatable=0;labelPosition=right;points=[];portConstraint=eastwest;strokeColor=inherit;" vertex="1" parent="GoCfgRTNsYvVOT-GzP8W-121">
          <mxGeometry y="26" width="640" height="8" as="geometry" />
        </mxCell>
        <mxCell id="GoCfgRTNsYvVOT-GzP8W-124" value="&lt;div&gt;&amp;nbsp;+&amp;nbsp;ReporteCliente(Cliente cliente, Parqueo parqueo)&lt;/div&gt;&lt;div&gt;+&amp;nbsp;obtenerEspaciosDisponibles()&lt;/div&gt;&lt;div&gt;+&amp;nbsp;obtenerHistorialDescendentePorFecha(File archivoHistorial, Cliente cliente, int precioPorHora)&lt;/div&gt;&lt;div&gt;+&amp;nbsp;obtenerMultasDescendentesPorFecha(File archivoMultas, Cliente cliente)&lt;/div&gt;&lt;div&gt;+&amp;nbsp;generarReporteCliente(File archivoHistorial, File archivoMultas, int precioPorHora, File archivoPDF)&lt;/div&gt;" style="text;strokeColor=none;fillColor=none;align=left;verticalAlign=top;spacingLeft=4;spacingRight=4;overflow=hidden;rotatable=0;points=[[0,0.5],[1,0.5]];portConstraint=eastwest;whiteSpace=wrap;html=1;" vertex="1" parent="GoCfgRTNsYvVOT-GzP8W-121">
          <mxGeometry y="34" width="640" height="172" as="geometry" />
        </mxCell>
        <mxCell id="GoCfgRTNsYvVOT-GzP8W-125" value="" style="endArrow=none;html=1;edgeStyle=orthogonalEdgeStyle;rounded=0;exitX=0.5;exitY=0;exitDx=0;exitDy=0;" edge="1" parent="1">
          <mxGeometry relative="1" as="geometry">
            <mxPoint x="853" y="1100" as="sourcePoint" />
            <mxPoint x="820" y="780" as="targetPoint" />
            <Array as="points">
              <mxPoint x="837" y="1100" />
              <mxPoint x="837" y="1090" />
              <mxPoint x="740" y="1090" />
              <mxPoint x="740" y="780" />
            </Array>
          </mxGeometry>
        </mxCell>
        <mxCell id="GoCfgRTNsYvVOT-GzP8W-126" value="" style="endArrow=none;html=1;edgeStyle=orthogonalEdgeStyle;rounded=0;exitX=1;exitY=-0.028;exitDx=0;exitDy=0;exitPerimeter=0;entryX=0.475;entryY=0.983;entryDx=0;entryDy=0;entryPerimeter=0;" edge="1" parent="1" source="GoCfgRTNsYvVOT-GzP8W-61" target="GoCfgRTNsYvVOT-GzP8W-124">
          <mxGeometry relative="1" as="geometry">
            <mxPoint x="780" y="1643" as="sourcePoint" />
            <mxPoint x="830" y="1323" as="targetPoint" />
            <Array as="points">
              <mxPoint x="465" y="1643" />
              <mxPoint x="830" y="1643" />
              <mxPoint x="830" y="1323" />
            </Array>
          </mxGeometry>
        </mxCell>
        <mxCell id="GoCfgRTNsYvVOT-GzP8W-127" value="1" style="text;html=1;align=center;verticalAlign=middle;resizable=0;points=[];autosize=1;strokeColor=none;fillColor=none;" vertex="1" parent="1">
          <mxGeometry x="460" y="1610" width="30" height="30" as="geometry" />
        </mxCell>
        <mxCell id="GoCfgRTNsYvVOT-GzP8W-128" value="*" style="text;html=1;align=center;verticalAlign=middle;resizable=0;points=[];autosize=1;strokeColor=none;fillColor=none;" vertex="1" parent="1">
          <mxGeometry x="797" y="1310" width="30" height="30" as="geometry" />
        </mxCell>
        <mxCell id="GoCfgRTNsYvVOT-GzP8W-130" value="*" style="text;html=1;align=center;verticalAlign=middle;resizable=0;points=[];autosize=1;strokeColor=none;fillColor=none;" vertex="1" parent="1">
          <mxGeometry x="850" y="1065" width="30" height="30" as="geometry" />
        </mxCell>
        <mxCell id="GoCfgRTNsYvVOT-GzP8W-131" value="1" style="text;html=1;align=center;verticalAlign=middle;resizable=0;points=[];autosize=1;strokeColor=none;fillColor=none;" vertex="1" parent="1">
          <mxGeometry x="790" y="785" width="30" height="30" as="geometry" />
        </mxCell>
        <mxCell id="GoCfgRTNsYvVOT-GzP8W-132" value="Correo" style="swimlane;fontStyle=1;align=center;verticalAlign=top;childLayout=stackLayout;horizontal=1;startSize=26;horizontalStack=0;resizeParent=1;resizeParentMax=0;resizeLast=0;collapsible=1;marginBottom=0;whiteSpace=wrap;html=1;" vertex="1" parent="1">
          <mxGeometry x="200" y="790" width="470" height="170" as="geometry" />
        </mxCell>
        <mxCell id="GoCfgRTNsYvVOT-GzP8W-133" value="&lt;div&gt;- from: String&lt;/div&gt;&lt;div&gt;- password: String&lt;/div&gt;&lt;div&gt;- host: String&lt;/div&gt;&lt;div&gt;- properties: Properties&lt;/div&gt;" style="text;strokeColor=none;fillColor=none;align=left;verticalAlign=top;spacingLeft=4;spacingRight=4;overflow=hidden;rotatable=0;points=[[0,0.5],[1,0.5]];portConstraint=eastwest;whiteSpace=wrap;html=1;" vertex="1" parent="GoCfgRTNsYvVOT-GzP8W-132">
          <mxGeometry y="26" width="470" height="64" as="geometry" />
        </mxCell>
        <mxCell id="GoCfgRTNsYvVOT-GzP8W-134" value="" style="line;strokeWidth=1;fillColor=none;align=left;verticalAlign=middle;spacingTop=-1;spacingLeft=3;spacingRight=3;rotatable=0;labelPosition=right;points=[];portConstraint=eastwest;strokeColor=inherit;" vertex="1" parent="GoCfgRTNsYvVOT-GzP8W-132">
          <mxGeometry y="90" width="470" height="8" as="geometry" />
        </mxCell>
        <mxCell id="GoCfgRTNsYvVOT-GzP8W-135" value="&lt;div&gt;+ Correo(String from, String password, String host)&lt;/div&gt;&lt;div&gt;+&amp;nbsp;enviarCorreoConAdjunto(String to, String asunto, String cuerpo, File archivoAdjunto)&lt;/div&gt;&lt;div&gt;+&amp;nbsp;&amp;nbsp;enviarCorreo(String to, String asunto, String cuerpo)&lt;/div&gt;" style="text;strokeColor=none;fillColor=none;align=left;verticalAlign=top;spacingLeft=4;spacingRight=4;overflow=hidden;rotatable=0;points=[[0,0.5],[1,0.5]];portConstraint=eastwest;whiteSpace=wrap;html=1;" vertex="1" parent="GoCfgRTNsYvVOT-GzP8W-132">
          <mxGeometry y="98" width="470" height="72" as="geometry" />
        </mxCell>
        <mxCell id="GoCfgRTNsYvVOT-GzP8W-136" value="" style="endArrow=none;html=1;edgeStyle=orthogonalEdgeStyle;rounded=0;entryX=0;entryY=0.028;entryDx=0;entryDy=0;entryPerimeter=0;" edge="1" parent="1" target="GoCfgRTNsYvVOT-GzP8W-135">
          <mxGeometry relative="1" as="geometry">
            <mxPoint x="-490" y="1090" as="sourcePoint" />
            <mxPoint x="-300" y="920" as="targetPoint" />
            <Array as="points">
              <mxPoint x="200" y="920" />
            </Array>
          </mxGeometry>
        </mxCell>
        <mxCell id="GoCfgRTNsYvVOT-GzP8W-139" value="" style="endArrow=none;html=1;edgeStyle=orthogonalEdgeStyle;rounded=0;entryX=0.316;entryY=0.981;entryDx=0;entryDy=0;entryPerimeter=0;exitX=0.587;exitY=0;exitDx=0;exitDy=0;exitPerimeter=0;" edge="1" parent="1" source="GoCfgRTNsYvVOT-GzP8W-94" target="GoCfgRTNsYvVOT-GzP8W-135">
          <mxGeometry relative="1" as="geometry">
            <mxPoint x="180" y="1048" as="sourcePoint" />
            <mxPoint x="345" y="1048.33" as="targetPoint" />
          </mxGeometry>
        </mxCell>
        <mxCell id="GoCfgRTNsYvVOT-GzP8W-142" value="" style="endArrow=none;html=1;edgeStyle=orthogonalEdgeStyle;rounded=0;entryX=0.316;entryY=0.981;entryDx=0;entryDy=0;entryPerimeter=0;exitX=0.131;exitY=0.006;exitDx=0;exitDy=0;exitPerimeter=0;" edge="1" parent="1" source="GoCfgRTNsYvVOT-GzP8W-121">
          <mxGeometry relative="1" as="geometry">
            <mxPoint x="440" y="1091" as="sourcePoint" />
            <mxPoint x="608" y="960" as="targetPoint" />
          </mxGeometry>
        </mxCell>
        <mxCell id="GoCfgRTNsYvVOT-GzP8W-143" value="*" style="text;html=1;align=center;verticalAlign=middle;resizable=0;points=[];autosize=1;strokeColor=none;fillColor=none;" vertex="1" parent="1">
          <mxGeometry x="-490" y="1060" width="30" height="30" as="geometry" />
        </mxCell>
        <mxCell id="GoCfgRTNsYvVOT-GzP8W-144" value="*" style="text;html=1;align=center;verticalAlign=middle;resizable=0;points=[];autosize=1;strokeColor=none;fillColor=none;" vertex="1" parent="1">
          <mxGeometry x="170" y="880" width="30" height="30" as="geometry" />
        </mxCell>
        <mxCell id="GoCfgRTNsYvVOT-GzP8W-145" value="*" style="text;html=1;align=center;verticalAlign=middle;resizable=0;points=[];autosize=1;strokeColor=none;fillColor=none;" vertex="1" parent="1">
          <mxGeometry x="185" y="1060" width="30" height="30" as="geometry" />
        </mxCell>
        <mxCell id="GoCfgRTNsYvVOT-GzP8W-146" value="*" style="text;html=1;align=center;verticalAlign=middle;resizable=0;points=[];autosize=1;strokeColor=none;fillColor=none;" vertex="1" parent="1">
          <mxGeometry x="185" y="960" width="30" height="30" as="geometry" />
        </mxCell>
        <mxCell id="GoCfgRTNsYvVOT-GzP8W-147" value="*" style="text;html=1;align=center;verticalAlign=middle;resizable=0;points=[];autosize=1;strokeColor=none;fillColor=none;" vertex="1" parent="1">
          <mxGeometry x="580" y="960" width="30" height="30" as="geometry" />
        </mxCell>
        <mxCell id="GoCfgRTNsYvVOT-GzP8W-148" value="*" style="text;html=1;align=center;verticalAlign=middle;resizable=0;points=[];autosize=1;strokeColor=none;fillColor=none;" vertex="1" parent="1">
          <mxGeometry x="580" y="1065" width="30" height="30" as="geometry" />
        </mxCell>
      </root>
    </mxGraphModel>
  </diagram>
</mxfile>
